:SAMPLES-PER-SECOND 30
:FULLY-SPECIFIED
:DEGREES
912
root  -37.2752 38.9684 0.204976 -54.3589 -89.0829 73.1667
RightUpLeg  -47.7704 -15.2651 9.16199
RightLeg  21.6942 1.22409 0.316273
RightFoot  7.77379 1.53234 -8.75262
RightToes  0.000482159 0.542163 -0.142577
Spine  60.3852 -2.89934 3.53417
Spine1  5.10939 -1.55804 0.962233
HEad  -26.3949 0.120906 -3.66423
LeftShoulder1  12.6407 -25.1435 -37.8141
LeftArm  -49.8479 -54.2202 3.29485
LeftForeArm  3.89927 -12.1465 -1.94176
LeftHand  -0.25398 0.0180481 5.50724
RightShoulder  5.82202 15.1898 24.9894
RightArm  -39.272 60.7276 2.22415
RightForeArm  -10.332 7.88073 7.22595
RightHand  -3.27674 12.938 -21.0082
LeftUpLeg  -46.5545 17.6427 -15.5562
LeftLeg  21.551 -4.22676 -1.50821
LeftFoot  4.90102 -1.5927 10.9165
LeftToes  1.06246e-005 4.65854e-005 -8.18503e-006
913
root  -36.9268 39.0425 0.387918 -83.7196 -89.3174 100.41
RightUpLeg  -45.5082 -15.7768 8.78916
RightLeg  20.5706 1.93351 0.593417
RightFoot  9.28241 1.65982 -8.75587
RightToes  0.000482159 0.542163 -0.142577
Spine  59.8593 -3.20622 3.37428
Spine1  4.63818 -1.7038 0.151295
HEad  -24.6732 0.829236 -4.09425
LeftShoulder1  12.2582 -24.7657 -37.0848
LeftArm  -45.7844 -51.863 -0.968345
LeftForeArm  3.41251 -10.4839 -1.81191
LeftHand  -0.25398 0.0180481 5.50724
RightShoulder  6.21785 15.3482 26.9041
RightArm  -33.9892 58.6095 8.31173
RightForeArm  -14.1399 8.34585 7.65532
RightHand  -3.62333 13.251 -22.7562
LeftUpLeg  -44.2906 19.0591 -15.5415
LeftLeg  20.2481 -4.89977 -1.65845
LeftFoot  5.59667 -1.69479 11.1148
LeftToes  1.06246e-005 4.65854e-005 -8.18503e-006
914
root  -36.575 39.13 0.561824 -126.723 -89.144 141.443
RightUpLeg  -43.3223 -16.8502 8.49054
RightLeg  19.3484 3.70591 1.30376
RightFoot  10.1837 1.37117 -6.84031
RightToes  0.000482159 0.542163 -0.142577
Spine  58.3292 -3.31581 3.01727
Spine1  5.39544 -1.75859 -0.503762
HEad  -23.2161 1.73193 -4.8018
LeftShoulder1  11.8408 -24.4101 -36.1793
LeftArm  -42.2053 -48.5564 -5.84747
LeftForeArm  3.01486 -9.68739 -1.56841
LeftHand  -0.25398 0.0180481 5.50724
RightShoulder  6.55029 15.5123 28.41
RightArm  -28.103 55.3461 13.6688
RightForeArm  -15.9633 9.87404 8.07715
RightHand  -3.73862 12.8848 -23.8883
LeftUpLeg  -42.0719 20.4788 -15.5029
LeftLeg  18.7355 -5.33857 -1.75395
LeftFoot  6.5207 -1.83623 11.3891
LeftToes  1.06246e-005 4.65854e-005 -8.18503e-006
915
root  -36.2226 39.1965 0.703399 -154.579 -88.4891 167.408
RightUpLeg  -41.0847 -17.6339 7.76725
RightLeg  18.436 6.23021 2.22157
RightFoot  9.35192 0.246665 -0.924639
RightToes  0.000482159 0.542163 -0.142577
Spine  56.4951 -3.15856 2.46587
Spine1  6.09565 -1.65026 -0.839125
HEad  -21.6592 3.15788 -5.6522
LeftShoulder1  11.7152 -23.8919 -36.5278
LeftArm  -38.4853 -44.2867 -9.90319
LeftForeArm  2.68048 -9.28064 -1.64974
LeftHand  -0.25398 0.0180481 5.50724
RightShoulder  6.88064 15.6997 29.8246
RightArm  -20.9918 51.1319 17.7554
RightForeArm  -15.1436 11.5955 8.38692
RightHand  -3.57267 11.967 -24.0171
LeftUpLeg  -39.8011 21.3987 -14.6056
LeftLeg  17.4033 -4.73445 -2.12499
LeftFoot  7.44125 -1.9952 11.7442
LeftToes  1.06246e-005 4.65854e-005 -8.18503e-006
916
root  -35.8716 39.2208 0.793203 -170.288 -87.7097 -178.995
RightUpLeg  -38.7266 -17.5502 6.56856
RightLeg  19.0315 7.55405 2.68527
RightFoot  6.78357 -1.00032 6.58255
RightToes  0.000482159 0.542163 -0.142577
Spine  55.1705 -3.04068 2.10576
Spine1  5.70098 -1.40174 -1.29776
HEad  -20.056 4.46499 -6.46246
LeftShoulder1  11.8236 -23.2873 -37.865
LeftArm  -34.2299 -39.0742 -12.709
LeftForeArm  2.69347 -8.58221 -2.13225
LeftHand  -0.25398 0.0180481 5.50724
RightShoulder  7.20918 15.6326 31.6907
RightArm  -12.7605 46.1015 20.8206
RightForeArm  -13.2611 13.3274 8.49529
RightHand  -3.36679 11.202 -23.6922
LeftUpLeg  -37.1459 21.0169 -12.0891
LeftLeg  16.6366 -2.43426 -2.81182
LeftFoot  8.0187 -2.10429 12.0017
LeftToes  1.06246e-005 4.65854e-005 -8.18503e-006
